<svg width="26" height="27" viewBox="0 0 26 27" fill="none" xmlns="http://www.w3.org/2000/svg">
<circle cx="13" cy="13.5" r="13" fill="white"/>
<path d="M18.8333 16.3699V18.1199C18.834 18.2824 18.8007 18.4432 18.7356 18.592C18.6705 18.7409 18.5751 18.8745 18.4554 18.9843C18.3357 19.0941 18.1943 19.1778 18.0404 19.2298C17.8865 19.2819 17.7235 19.3012 17.5617 19.2866C15.7667 19.0915 14.0424 18.4781 12.5275 17.4957C11.1181 16.6001 9.92311 15.4052 9.0275 13.9957C8.04166 12.4739 7.42814 10.7413 7.23667 8.93823C7.22209 8.77692 7.24126 8.61434 7.29296 8.46084C7.34466 8.30735 7.42775 8.1663 7.53695 8.04667C7.64615 7.92705 7.77905 7.83147 7.92721 7.76603C8.07537 7.70059 8.23553 7.66671 8.3975 7.66656H10.1475C10.4306 7.66377 10.705 7.76402 10.9197 7.94862C11.1343 8.13322 11.2745 8.38957 11.3142 8.66989C11.388 9.22993 11.525 9.77982 11.7225 10.3091C11.801 10.5178 11.818 10.7448 11.7714 10.9629C11.7249 11.1811 11.6168 11.3813 11.46 11.5399L10.7192 12.2807C11.5496 13.7411 12.7588 14.9503 14.2192 15.7807L14.96 15.0399C15.1186 14.8831 15.3188 14.775 15.537 14.7284C15.7551 14.6819 15.982 14.6989 16.1908 14.7774C16.7201 14.9749 17.27 15.1119 17.83 15.1857C18.1134 15.2257 18.3722 15.3684 18.5571 15.5868C18.7421 15.8051 18.8404 16.0838 18.8333 16.3699Z" stroke="#714B67" stroke-width="1.16667" stroke-linecap="round" stroke-linejoin="round"/>
</svg>
